<svg width="55" height="55" viewBox="0 0 55 55" fill="none" xmlns="http://www.w3.org/2000/svg">
<path d="M41.8 22.7998C40.7 22.7998 39.8 23.6998 39.8 24.7998C39.8 25.8998 40.7 26.7998 41.8 26.7998C42.9 26.7998 43.8 25.8998 43.8 24.7998C43.8 23.6998 42.9 22.7998 41.8 22.7998Z" fill="#EFEFEF"/>
<path d="M12.9 30.8999C11.8 30.8999 10.9 31.7999 10.9 32.8999C10.9 33.9999 11.8 34.8999 12.9 34.8999C14 34.8999 14.9 33.9999 14.9 32.8999C14.9 31.7999 14 30.8999 12.9 30.8999Z" fill="#EFEFEF"/>
<path d="M27.3 19.7998C26.2 19.7998 25.3 20.6998 25.3 21.7998C25.3 22.8998 26.2 23.7998 27.3 23.7998C28.4 23.7998 29.3 22.8998 29.3 21.7998C29.3 20.6998 28.4 19.7998 27.3 19.7998Z" fill="#EFEFEF"/>
<path d="M27.3 0C12.2 0 0 12.2 0 27.3C0 42.4 12.2 54.6 27.3 54.6C42.4 54.6 54.6 42.4 54.6 27.3C54.6 12.2 42.4 0 27.3 0ZM41.8 29.7C39.2 29.7 37.1 27.7 36.9 25.2L31.7 24.1C30.9 25.6 29.2 26.6 27.4 26.6C26.3 26.6 25.4 26.3 24.6 25.7L17.6 31C17.8 31.5 17.9 32.1 17.9 32.7C17.9 35.4 15.7 37.7 12.9 37.7C10.2 37.7 7.9 35.5 7.9 32.7C7.9 29.9 10.1 27.7 12.9 27.7C14 27.7 14.9 28 15.7 28.6L22.7 23.3C22.5 22.8 22.4 22.2 22.4 21.6C22.4 18.9 24.6 16.6 27.4 16.6C30 16.6 32.1 18.6 32.3 21.1L37.5 22.2C38.3 20.7 40 19.7 41.8 19.7C44.5 19.7 46.8 21.9 46.8 24.7C46.8 27.5 44.5 29.7 41.8 29.7Z" fill="#EFEFEF"/>
</svg>
