<svg width="30" height="25" viewBox="0 0 30 25" fill="none" xmlns="http://www.w3.org/2000/svg">
<path d="M28.6031 7.3L23.0031 0.7C22.7031 0.2 22.2031 0 21.6031 0H7.40311C6.80311 0 6.30311 0.2 6.00311 0.7L0.403111 7.3C-0.196889 8 -0.0968893 9 0.503111 9.7L13.2031 23.6C13.5031 24 14.0031 24.2 14.5031 24.2C15.0031 24.2 15.5031 24 15.8031 23.6L28.5031 9.7C29.1031 9 29.2031 8 28.6031 7.3ZM23.3031 6.7H16.3031V3.6H20.8031L23.3031 6.7ZM12.7031 17.8L5.90311 10.4H12.7031V17.8ZM16.3031 10.3H23.1031L16.3031 17.7V10.3ZM8.20311 3.6H12.7031V6.7H5.70311L8.20311 3.6Z" fill="#F61A41"/>
</svg>
