<svg width="55" height="55" viewBox="0 0 55 55" fill="none" xmlns="http://www.w3.org/2000/svg">
<path d="M18.5 23.8002H25.5V20.7002H21.1L18.5 23.8002Z" fill="#EFEFEF"/>
<path d="M29.1 34.8999L35.9 27.3999H29.1V34.8999Z" fill="#EFEFEF"/>
<path d="M27.3 0C12.2 0 0 12.2 0 27.3C0 42.4 12.2 54.6 27.3 54.6C42.4 54.6 54.6 42.4 54.6 27.3C54.6 12.2 42.4 0 27.3 0ZM41.4 26.8L28.7 40.8C28.4 41.2 27.9 41.4 27.4 41.4C26.9 41.4 26.4 41.2 26.1 40.8L13.3 26.8C12.7 26.1 12.7 25.1 13.2 24.4L18.8 17.7C19.1 17.3 19.7 17 20.2 17H34.4C34.9 17 35.4 17.2 35.8 17.7L41.4 24.4C42 25.1 42 26.2 41.4 26.8Z" fill="#EFEFEF"/>
<path d="M25.5 34.8999V27.3999H18.7L25.5 34.8999Z" fill="#EFEFEF"/>
<path d="M29.1 20.7002V23.8002H36.2L33.6 20.7002H29.1Z" fill="#EFEFEF"/>
</svg>
