<svg width="55" height="55" viewBox="0 0 55 55" fill="none" xmlns="http://www.w3.org/2000/svg">
<path d="M24.9659 31.0108C28.9456 30.3649 31.6481 26.6151 31.0023 22.6355C30.3564 18.6558 26.6066 15.9532 22.627 16.5991C18.6473 17.245 15.9447 20.9947 16.5906 24.9744C17.2365 28.9541 20.9862 31.6566 24.9659 31.0108Z" fill="#EFEFEF"/>
<path d="M27.3 0C12.2 0 0 12.2 0 27.3C0 42.4 12.2 54.6 27.3 54.6C42.4 54.6 54.6 42.4 54.6 27.3C54.6 12.2 42.4 0 27.3 0ZM40.5 40.5C39.9 41.1 39.2 41.4 38.3 41.4C37.5 41.4 36.7 41.1 36.1 40.5L28.8 33.2C27.4 34 25.8 34.4 24.1 34.4C24 34.4 23.9 34.4 23.9 34.4C18.1 34.4 13.4 29.7 13.4 23.9C13.4 18.1 18 13.3 23.8 13.3C23.9 13.3 24 13.3 24 13.3C26.8 13.4 29.3 14.5 31.3 16.5C33.2 18.5 34.3 21.1 34.3 23.9C34.3 25.7 33.9 27.3 33.1 28.8L40.4 36.1C41 36.7 41.3 37.4 41.3 38.3C41.3 39.2 41 39.9 40.5 40.5Z" fill="#EFEFEF"/>
</svg>
